<?xml version="1.0" encoding="UTF-8" standalone="no"?>
<svg
   xmlns:dc="http://purl.org/dc/elements/1.1/"
   xmlns:cc="http://creativecommons.org/ns#"
   xmlns:rdf="http://www.w3.org/1999/02/22-rdf-syntax-ns#"
   xmlns:svg="http://www.w3.org/2000/svg"
   xmlns="http://www.w3.org/2000/svg"
   id="svg10102"
   width="512"
   version="1.1"
   height="512">
  <metadata
     id="metadata10108">
    <rdf:RDF>
      <cc:Work
         rdf:about="">
        <dc:format>image/svg+xml</dc:format>
        <dc:type
           rdf:resource="http://purl.org/dc/dcmitype/StillImage" />
        <dc:title></dc:title>
      </cc:Work>
    </rdf:RDF>
  </metadata>
  <defs
     id="defs10106" />
  <g
     id="g10100"
     transform="matrix(21.56189,0,0,21.56189,-2.9234628,-22194.186)">
    <path
       style="fill:#ecf0f1"
       id="path10092"
       d="m 1,1035.1424 v 1 1 2 1 1 1 1 2 1 2 1 c 0,1.105 0.8954,2 2,2 h 9 9 c 1.105,0 2,-0.895 2,-2 v -1 -2 -4 -2 -3 -1 -1 z" />
    <rect
       y="1031.2719"
       x="1.0631497"
       height="3.8493457"
       width="21.934349"
       id="rect10655"
       style="fill:#bdc3c7;fill-opacity:1;stroke:none;stroke-width:0.72812092;stroke-miterlimit:4;stroke-dasharray:none;stroke-opacity:1" />
    <path
       style="fill:#c0392b"
       id="path10094"
       d="m 22.087433,1033.1424 a 1,1 0 1 1 -1.999996,0 1,1 0 1 1 1.999996,0 z" />
    <rect
       transform="scale(1,-1)"
       y="-1051.2277"
       x="1.0631472"
       height="1.8674853"
       width="21.934349"
       id="rect10655-6"
       style="fill:#bdc3c7;fill-opacity:1;stroke:none;stroke-width:0.50715262;stroke-miterlimit:4;stroke-dasharray:none;stroke-opacity:1" />
    <path
       id="path10672"
       d="m 14.32729,1033.9164 c 1.623234,0 1.623234,0 1.623234,0"
       style="fill:none;stroke:#646564;stroke-width:0.32464686;stroke-linecap:butt;stroke-linejoin:miter;stroke-miterlimit:4;stroke-dasharray:none;stroke-opacity:1" />
    <rect
       y="1032.4781"
       x="17.295498"
       height="1.3913436"
       width="1.3913385"
       id="rect10674"
       style="fill:none;fill-opacity:1;stroke:#646564;stroke-width:0.30056402;stroke-miterlimit:4;stroke-dasharray:none;stroke-opacity:1" />
    <g
       transform="matrix(0.07097982,0,0,0.07097982,7.1340046,1026.1188)"
       id="g8601">
      <path
         style="fill:#000000;fill-opacity:1;stroke:#ff0000;stroke-width:9.98046017;stroke-linecap:butt;stroke-linejoin:miter;stroke-miterlimit:4;stroke-dasharray:none;stroke-opacity:1"
         d="m 68.313326,162.27936 c 0,50.15199 0,50.27083 0,50.27083"
         id="path7983" />
      <path
         id="path8530"
         d="m 68.313326,241.38979 c 0,50.15199 0,50.27083 0,50.27083"
         style="fill:#000000;fill-opacity:1;stroke:#ff0000;stroke-width:9.98046017;stroke-linecap:butt;stroke-linejoin:miter;stroke-miterlimit:4;stroke-dasharray:none;stroke-opacity:1" />
      <path
         style="fill:#000000;fill-opacity:1;stroke:#ff0000;stroke-width:9.98046017;stroke-linecap:butt;stroke-linejoin:miter;stroke-miterlimit:4;stroke-dasharray:none;stroke-opacity:1"
         d="m 133.37754,227.12555 c -50.151972,0 -50.270813,0 -50.270813,0"
         id="path8532" />
      <path
         id="path8534"
         d="m 54.002548,227.12555 c -50.151985,0 -50.270825,0 -50.270825,0"
         style="fill:#000000;fill-opacity:1;stroke:#ff0000;stroke-width:9.98046017;stroke-linecap:butt;stroke-linejoin:miter;stroke-miterlimit:4;stroke-dasharray:none;stroke-opacity:1" />
      <rect
         style="fill:#000000;fill-opacity:1;stroke:#646464;stroke-width:6.18317842;stroke-miterlimit:4;stroke-dasharray:none;stroke-opacity:1"
         id="rect8538"
         width="4.233336"
         height="4.2333302"
         x="66.196655"
         y="225.00888" />
    </g>
  </g>
</svg>
