<?xml version="1.0" encoding="UTF-8" standalone="no"?>
<svg
   xmlns:dc="http://purl.org/dc/elements/1.1/"
   xmlns:cc="http://creativecommons.org/ns#"
   xmlns:rdf="http://www.w3.org/1999/02/22-rdf-syntax-ns#"
   xmlns:svg="http://www.w3.org/2000/svg"
   xmlns="http://www.w3.org/2000/svg"
   xmlns:sodipodi="http://sodipodi.sourceforge.net/DTD/sodipodi-0.dtd"
   xmlns:inkscape="http://www.inkscape.org/namespaces/inkscape"
   version="1.1"
   stroke-width="2"
   stroke-linejoin="round"
   stroke-linecap="round"
   stroke="#000"
   fill="none"
   viewBox="0 0 32 32"
   id="i-clipboard"
   sodipodi:docname="ClipboardDark.svg"
   inkscape:version="0.92.5 (2060ec1f9f, 2020-04-08)">
  <sodipodi:namedview
     pagecolor="#ffffff"
     bordercolor="#666666"
     borderopacity="1"
     objecttolerance="10"
     gridtolerance="10"
     guidetolerance="10"
     inkscape:pageopacity="0"
     inkscape:pageshadow="2"
     inkscape:window-width="2510"
     inkscape:window-height="1536"
     id="namedview2605"
     showgrid="false"
     inkscape:zoom="29.212349"
     inkscape:cx="16"
     inkscape:cy="16"
     inkscape:window-x="50"
     inkscape:window-y="27"
     inkscape:window-maximized="1"
     inkscape:current-layer="i-clipboard"
     inkscape:pagecheckerboard="true" />
  <metadata
     id="metadata966">
    <rdf:RDF>
      <cc:Work
         rdf:about="">
        <dc:format>image/svg+xml</dc:format>
        <dc:type
           rdf:resource="http://purl.org/dc/dcmitype/StillImage" />
        <dc:title></dc:title>
      </cc:Work>
    </rdf:RDF>
  </metadata>
  <defs
     id="defs964" />
  <path
     id="path959"
     d="M12 2 L12 6 20 6 20 2 12 2 Z M11 4 L6 4 6 30 26 30 26 4 21 4" />
  <path
     style="fill:#ffffff;fill-opacity:1;stroke:#ffffff;stroke-width:0.02050503;stroke-linecap:square;stroke-linejoin:round;stroke-miterlimit:4;stroke-dasharray:none;stroke-dashoffset:0;stroke-opacity:1"
     d="M 5.5551983,30.861621 C 5.4180564,30.790627 5.2989385,30.696534 5.2272976,30.602606 4.992275,30.294471 5.0102311,31.478965 5.0198792,16.920038 l 0.00873,-13.1785524 0.09194,-0.1742421 C 5.2280582,3.3635011 5.4074029,3.1958073 5.625935,3.0946925 5.7794012,3.0236838 5.8204996,3.0224691 8.3886093,3.0130343 L 10.9955,3.0034543 11.00856,2.3968537 C 11.02403,1.6786233 11.06906,1.5308531 11.34928,1.2789145 11.657864,1.0014753 11.32447,1.0200338 16,1.0200338 c 4.67553,0 4.342136,-0.018558 4.650718,0.2588835 0.280216,0.2519386 0.325253,0.3997088 0.34072,1.1179392 l 0.01306,0.6066006 2.606891,0.00958 2.60689,0.00958 0.171161,0.078776 c 0.216547,0.099665 0.374819,0.250867 0.490864,0.4689378 l 0.09108,0.1711605 0.0087,13.1785526 c 0.0096,14.558927 0.0276,13.374433 -0.207419,13.682568 -0.07164,0.09393 -0.190758,0.188021 -0.3279,0.259015 L 26.229416,30.97312 H 16 5.7705845 Z M 25.003042,17.006424 V 4.9909572 h -1.999253 -1.999252 l -0.01273,0.6076197 c -0.01137,0.543071 -0.021,0.6258025 -0.09059,0.7787803 -0.09245,0.2032171 -0.278741,0.4052892 -0.468159,0.5078239 l -0.136929,0.074122 H 16 11.703872 L 11.566943,6.8851811 C 11.377525,6.7826464 11.191237,6.5805743 11.098784,6.3773572 11.029188,6.2243794 11.019564,6.1416479 11.008189,5.5985769 L 10.995463,4.9909572 H 8.9962109 6.9969581 V 17.006424 29.02189 H 16 25.003042 Z M 19.012425,3.9982263 V 2.9712634 H 16 12.987575 v 1.0269629 1.026963 H 16 19.012425 Z"
     id="path2626"
     inkscape:connector-curvature="0" />
</svg>
